<svg width="121" height="120" viewBox="0 0 121 120" fill="none" xmlns="http://www.w3.org/2000/svg">
<path d="M0 16C0 7.16344 7.16344 0 16 0H104C112.837 0 120 7.16344 120 16V104C120 112.837 112.837 120 104 120H16C7.16344 120 0 112.837 0 104V16Z" fill="url(#paint0_linear)"/>
<path d="M87.5634 0C79.9606 0 73.4077 5.35021 71.8868 12.7994L53.9201 100.799C51.8951 110.718 59.4738 120 69.5967 120L105 120C113.837 120 121 112.837 121 104V16C121 7.16344 113.837 0 105 0L87.5634 0Z" fill="url(#paint1_linear)"/>
<path d="M26.9336 22.832H16.3691V26.3477H19.7705V37H23.541V26.3477H26.9336V22.832ZM37.9449 22.832V28.1494H33.7349V22.832H29.9732V37H33.7349V31.665H37.9449V37H41.6978V22.832H37.9449ZM54.7833 26.3301V22.832H45.5988V37H54.7833V33.4756H49.3165V31.4453H53.8165V28.3076H49.3165V26.3301H54.7833ZM24.3496 61.3164C26.5029 61.3164 28.3047 60.4639 29.6582 59.2334L27.5137 56.377C26.5996 57.1943 25.5361 57.7568 24.3496 57.7568C22.3281 57.7568 20.4297 56.1396 20.4297 53.9424C20.4297 51.7715 22.249 50.1104 24.4287 50.1104C25.4746 50.1104 26.626 50.6289 27.4961 51.4199L29.6582 48.6426C28.208 47.3242 26.248 46.5244 24.4199 46.498C20.0078 46.498 16.6152 49.7236 16.6152 53.916C16.6152 58.3633 20.3506 61.3164 24.3496 61.3164ZM39.2369 61.3604C43.649 61.3604 47.024 58.1523 47.024 53.9336C47.024 49.6797 43.649 46.4541 39.2457 46.4541C34.8423 46.4541 31.4673 49.6797 31.4673 53.9336C31.4673 58.1523 34.8336 61.3604 39.2369 61.3604ZM39.2457 57.7656C36.9957 57.7656 35.273 56.0869 35.273 53.9072C35.273 51.7188 36.9957 50.0312 39.2457 50.0312C41.4957 50.0312 43.2183 51.7188 43.2183 53.9072C43.2183 56.0869 41.4957 57.7656 39.2457 57.7656ZM54.9327 46.832L50.3097 46.8408V61H54.9327C59.7491 61 62.6935 58.3281 62.6935 53.9336C62.6935 49.5039 59.7491 46.8145 54.9327 46.832ZM54.8712 57.458H53.9747V50.3477H54.8361C57.3761 50.3477 58.923 51.7012 58.923 53.9248C58.923 56.1221 57.3849 57.458 54.8712 57.458ZM65.988 61H69.7497V46.832H65.988V61ZM82.1233 46.8145V53.7227L74.8635 46.6914H73.6506V61.0088H77.4123V54.083L84.6985 61.1406H85.8938V46.8145H82.1233ZM104.253 52.8613H96.9842V55.665H100.227C100.175 57.0186 98.9529 57.8447 97.2391 57.8447C94.6199 57.8447 93.0291 55.9111 93.0291 53.9248C93.0291 51.7363 94.8836 50.0049 96.993 50.0049C98.0389 50.0049 99.1727 50.4795 99.9637 51.2178L102.047 48.3613C100.878 47.2803 98.7947 46.5156 96.993 46.4893C92.5984 46.4893 89.1883 49.8906 89.1883 53.9336C89.1883 57.9766 92.5896 61.334 97.0896 61.334C101.115 61.334 104.367 58.5479 104.367 54.2412C104.367 53.793 104.323 53.3359 104.253 52.8613ZM17.2305 85H20.9922V70.832H17.2305V85ZM33.3658 70.8145V77.7227L26.106 70.6914H24.8931V85.0088H28.6548V78.083L35.941 85.1406H37.1363V70.8145H33.3658ZM45.4669 85.1934C48.3058 85.1934 50.8195 83.5146 50.8195 80.8164C50.8195 78.7246 49.3517 77.3711 47.1368 76.4395C45.6075 75.7979 44.6056 75.5869 44.6056 74.9365C44.6056 74.4531 45.1593 74.0576 45.9327 74.0576C46.6095 74.0576 47.6993 74.3828 48.1212 75.1299L50.2921 73.0381C49.7384 71.6406 48.0509 70.6211 45.8888 70.6211C43.1993 70.6211 40.8702 72.3701 40.8702 74.8223C40.8702 76.958 42.4083 78.1357 44.2013 78.9092C45.59 79.5244 47.0402 80.166 47.0402 80.8955C47.0402 81.4756 46.2579 81.7656 45.4581 81.7656C44.2716 81.7656 43.173 81.2383 42.5841 80.3682L40.3077 82.6006C41.0196 84.165 43.1378 85.1934 45.4669 85.1934ZM53.9821 85H57.7438V70.832H53.9821V85ZM76.094 76.8613H68.8254V79.665H72.0686C72.0159 81.0186 70.7942 81.8447 69.0803 81.8447C66.4612 81.8447 64.8704 79.9111 64.8704 77.9248C64.8704 75.7363 66.7248 74.0049 68.8342 74.0049C69.8801 74.0049 71.0139 74.4795 71.8049 75.2178L73.8879 72.3613C72.719 71.2803 70.636 70.5156 68.8342 70.4893C64.4397 70.4893 61.0295 73.8906 61.0295 77.9336C61.0295 81.9766 64.4309 85.334 68.9309 85.334C72.9563 85.334 76.2082 82.5479 76.2082 78.2412C76.2082 77.793 76.1643 77.3359 76.094 76.8613ZM87.4744 70.832V76.1494H83.2645V70.832H79.5027V85H83.2645V79.665H87.4744V85H91.2273V70.832H87.4744ZM104.831 70.832H94.267V74.3477H97.6683V85H101.439V74.3477H104.831V70.832Z" fill="white"/>
<path d="M16 101C16 100.448 16.4477 100 17 100H63C63.5523 100 64 100.448 64 101C64 101.552 63.5523 102 63 102H17C16.4477 102 16 101.552 16 101Z" fill="white"/>
<defs>
<linearGradient id="paint0_linear" x1="59.5041" y1="0" x2="59.5041" y2="120" gradientUnits="userSpaceOnUse">
<stop/>
<stop offset="0.0001"/>
<stop offset="1" stop-color="#363636"/>
</linearGradient>
<linearGradient id="paint1_linear" x1="121" y1="0" x2="43.8288" y2="4.10937" gradientUnits="userSpaceOnUse">
<stop stop-color="#3F44C5"/>
<stop offset="1" stop-color="#00D3E0"/>
<stop offset="1" stop-color="#00D3E0"/>
</linearGradient>
</defs>
</svg>
